<?xml version="1.0" encoding="UTF-8"?>
<svg version="1.1" id="Layer_1" xmlns="http://www.w3.org/2000/svg" xmlns:xlink="http://www.w3.org/1999/xlink" x="0px" y="0px" viewBox="0 0 212.6 92.1" style="enable-background:new 0 0 212.6 92.1;" xml:space="preserve">
<style type="text/css">
	.st0{fill:#FFD100;}
	.st1{fill:none;}
	.st2{fill:#7AC143;}
	.st3{fill:#7F499C;}
	.st4{fill:#30B5E4;}
	.st5{fill:#D11F38;}
	.st6{fill:#EF7A22;}
	.st7{fill:#124B8C;}
</style>
<g>
	<path class="st0" d="M63.2,59.9c0-0.1-0.1-0.2-0.1-0.2c-0.2-0.2-0.4-0.3-0.6-0.5c-0.1-0.1-0.1-0.2-0.2-0.3   c-0.1-0.1-0.6-0.2-0.9-0.3c-0.2-0.1-0.3-0.2-0.5-0.2c-0.5-0.2-1-0.5-1.4-0.8c-0.4-0.3-0.8-0.5-1.2-0.7c-0.1-0.1-0.3,0-0.4,0   c-0.1,0,0-0.3-0.1-0.5c0.1-0.1-0.1-0.3-0.1-0.3c-0.2-0.2-0.2-0.3-0.4-0.4c-0.1-0.1-0.2-0.2-0.3-0.3c-0.6,0.1-1.1,0.2-1.1,0.2   c0.7,0.6,0,1.1-0.2,1.5c-0.1,0.4-0.9,1.9-1.2,2.3c-0.4,0.4-1,1.4-1.2,1.7c-0.2,0.3-0.2-0.4-0.2-0.8c0-0.4,0.1-2.2,0.2-2.6   c0.1-0.4,0.2-1.5,0.1-2c0-0.5,0.4-1,0.4-1.3c0-0.3-0.1-0.6,0-0.9c0,0,0,0,0-0.1c-0.7-0.3-1.4-0.5-2-0.4l-0.5,0.3l-0.2,0.6   c0.1,0,0.2,0,0.3-0.1c0.4-0.1,0.9-0.6,1.1-0.6c0.2,0.1,0.2,0.4,0.3,0.6s0,0.6,0.1,0.9c0.1,0.3,0.1,1.3-0.2,1.1   c-0.3-0.2-1.2-0.8-1.7-1.2c-0.5-0.4-0.7-0.4-0.7-0.6l-1.1,0.2l-1.8,0.6c-3.8,0.6-4.7,0.4-5.4,0.8c-0.6,0.5-1.2,0.9-1.2,0.9   l-3.8,0.1v0c0,0,0,0-0.1,0l-0.1,0l0,0c-0.4,0.1-1,0.2-1.3,0.3c0,0,0,0.5,0,0.5l1.4-0.2v-0.2c0.2,0.1,0.2,0.3,0.4,0.5   c0.4,0.3,1.9-0.5,2.4-0.7c0.5-0.2,3,0.2,3.7,0.5c0.7,0.3,2.7,2.7,3.7,3.3c1,0.6,4.3,1,4.9,1.5c0.6,0.5,2.1,1.3,2.3,1.8   c0.2,0.5,0.8,1,0.3,1.2c-0.1,0-0.5,0.8-0.9,1.3c-0.1,0-0.2,0-0.3,0.1c-1.4,0.9-2,1.6-2.6,2.2c0,0,0.2,0.1,0.2,0.1   c0.4-0.3,0.8-0.7,1-0.9c0.4-0.2,1.4-0.8,2.2-1.3c1.4-0.5,3.4-1.1,4.2-1.2c1.2-0.3,2.6-0.7,3.2-1.3c0.4-0.4-0.1-4.5,0.5-4   c0.3,0.3,0.7,0.3,1.1,0.1C63.3,60.1,63.3,60,63.2,59.9z"/>
	<path class="st1" d="M44.7,46.1c0,0,0,0-0.1-0.1C44.6,46,44.6,46.1,44.7,46.1z"/>
	<path class="st2" d="M45.1,48.5L45.1,48.5l0.8,0.6c0,0,0,0,0.1,0C45.7,49,45.4,48.7,45.1,48.5z"/>
	<path class="st3" d="M62.2,60.1c-0.5-0.5-0.1,3.6-0.5,4c-0.6,0.6-2,1-3.2,1.3c-0.9,0.2-2.4,0.5-3.6,0.9c-0.9,0.5-2.2,1.3-2.7,1.6   c-0.3,0.2-0.7,0.5-1,0.9c0.3,0.1,0.6,0.2,0.6,0.2c0.2,0.2,0.5,0.2,0.9,0.5c0.4,0.2,1.7,0.6,2.1,0.7c0.3,0.1,1.6,0.2,1.9,0.4   c0.3,0.2,0.5,0.3,0.9,0.4c0.4,0.1,0.8,0.1,0.9,0.2c0,0,0,0,0,0c0,0.2-0.1,0.3-0.1,0.5c0,0.1,0,0.2,0,0.4c-0.2,0.8-0.4,1.6-0.3,1.9   c0.1,0.4,1.5-0.8,1.5-0.8l0.9-0.8c0.1,0,0.2,0,0.3,0c0.1,0,0.2-0.1,0.3-0.1c0.3,0.1,0.5,0.2,0.8,0.1c-0.1,0,0.1,0,0.2,0   c0.3-0.1-0.1-0.1-0.1-0.2c-0.1-0.1-0.3-0.1-0.4-0.1c-0.1,0-0.2-0.1-0.2-0.1c0-0.1-0.1-0.2-0.2-0.4c0-0.2-0.1-0.1-0.2-0.3   c-0.1-0.1-0.2-0.4-0.2-0.5c-0.4-0.3-0.4-0.1-0.5-0.6c0,0.1-0.4-0.6-0.4-0.6c-0.2-0.4-0.4-0.6-0.2-0.8c0.2-0.1,0.7,0.1,0.9,0   c0.2-0.1,0.6-0.1,0.9-0.1c0.1,0,0.1,0,0.2,0c0.2-0.1,0.3,0,0.4,0.1c0.1,0,0.2,0.2,0.2,0.3c0,0.3-0.2,0.7,0,0.9   c-0.2,0.4,0,0.3,0,0.6c-0.1,0-0.1,0.4-0.1,0.8c0,0.5,0,0.4-0.1,0.9c0,0.1,0.1,0.1,0.1,0.2c0,0,0,0-0.1,0c0.1,0,0.2,0.1,0.5,0.3   c0,0,0.2,0,0.2,0.1c0.4,0.5-0.2,1.2-0.2,1.3c0,0.2,0.1,0.4-0.1,0.6c0,0,0,0.1,0,0.2c0.1,0.3,0,0.5-0.1,0.8c0.1,0.1,0.1,0.1,0.2,0.1   c0,0.1,0.1,0.1,0.1,0.2c0,0.1-0.2,0.6-0.2,0.7c-0.1,0.1-0.2,0.3-0.2,0.5c0,0.1,0,0.3,0,0.5c-0.1,0.2-1.3,1.3-0.3,1.8   c0.2,0.2,0.9-1,1.2-1.7c0.2-0.1,0.3-0.2,0.4-0.3c0.2-0.4,0.3-0.7,0.3-1.1c0-0.4,0.1-0.7,0.2-1c0.1-0.2,0.2-0.4,0.2-0.7   c0-0.5,0.3-0.9,0.4-1.4c0.1-0.2,0.2-0.2,0.4-0.2c0.1,0.1,0.3,0.1,0.4,0.2c0.2,0.1,0.4,0.2,0.4,0.5c0,0,0.1,0.1,0.1,0.2   c0.2,0.1,0.3,0.3,0.5,0.4c0.5,0.3,0.9,0.7,1.2,1.1c0.3,0.4,0.7,0.7,1.1,1c0.2,0.1,0.3,0.2,0.4,0.4c0.2,0.3,0.5,0.6,0.8,0.8   c0.3,0.2,0.5,0.4,0.8,0.6c0.1,0,0.1,0.1,0.1,0.2c0.2,0.2,0.4,0.5,0.7,0.7c0.5,0.4,1.1,0.8,1.7,1.2c0.1,0,0.1,0.1,0.2,0.2   c0,0.2,0.2,0.3,0.3,0.4c0.3,0.2,0.7,0.5,1,0.7c0.1,0.1,0.2,0.1,0.3,0.2c0.2,0.3,0.5,0.5,0.7,0.8c0.1,0.2,0.3,0.3,0.5,0.5   c0.4,0.3,0.8,0.6,1.2,0.9c0.2,0.1,0.3,0.3,0.4,0.5c0,0.1,0.1,0.2,0.1,0.2c0.4,0.3,0.9,0.6,1.3,0.8c0.4,0.3,0.8,0.4,1.1,0.9   c0,0,0,0,0.1,0.1c0.5,0.4,1,0.8,1.5,1.1c0.3,0.2,0.7,0.5,1,0.7c0.3,0.2,0.5,0.5,0.8,0.7c0.5,0.4,1,0.7,1.5,1   c0.2,0.1,0.4,0.1,0.5,0.3c0.2,0.2,0.4,0.3,0.6,0.4c0.2,0.2,0.5,0.3,0.8,0.4c0.2,0.1,0.3,0.6,0.5,0.5c-0.1,0.3,0,0.6,0.6,0.7l0.7,0   c0.3-0.4-0.3-1-0.6-0.9c-0.1-0.1-0.2-0.1-0.2-0.1c-0.5-0.3-1-0.6-1.4-0.9c-0.4-0.3-0.9-0.6-1.3-1c-0.1,0-0.1-0.1-0.2-0.2   c-0.1-0.2-0.3-0.3-0.5-0.5c-0.3-0.2-0.5-0.4-0.8-0.6c-0.2-0.1-0.3-0.2-0.5-0.3c-0.2-0.1-0.4-0.2-0.6-0.4c-0.3-0.2-0.5-0.4-0.8-0.6   c-0.1-0.1-0.3-0.1-0.2-0.3c0,0-0.1-0.1-0.1-0.1c-0.2-0.1-0.3-0.3-0.5-0.4c-0.1-0.1-0.2-0.2-0.3-0.2c-0.5-0.2-1-0.5-1.4-0.9   c-0.1,0-0.1-0.1-0.2-0.1c-0.3-0.2-0.5-0.3-0.7-0.5c-0.2-0.2-0.3-0.3-0.5-0.5c-0.5-0.4-1-0.8-1.5-1.1c-0.1,0-0.2-0.1-0.2-0.2   c0-0.3-0.2-0.5-0.5-0.6c-0.3-0.2-0.6-0.4-0.9-0.6c-0.3-0.2-0.6-0.3-0.7-0.7c0,0,0-0.1-0.1-0.1c-0.6-0.6-1.2-1.2-2-1.5   c0-0.1,0-0.1,0.1-0.2c-0.3-0.3-0.6-0.5-0.9-0.8c-0.4-0.4-0.8-0.7-1.1-1.1c0,0-0.1-0.1-0.1-0.1c-0.3-0.2-0.6-0.5-0.9-0.8   c-0.1-0.1-0.2-0.1-0.3-0.2c-0.4-0.4-0.8-0.8-1.3-1.2c-0.4-0.3-0.8-0.6-1.2-0.9c-0.1,0-0.1-0.1-0.1-0.1c0-0.2-0.1-0.2-0.3-0.3   c-0.2-0.1-0.4-0.3-0.5-0.4c-0.4-0.3-0.5-0.6-0.5-1.1c0-0.2,0-0.3,0.1-0.4c0.1-0.2,0.1-0.5,0.2-0.7c0-0.1,0-0.2,0.1-0.4   c0.2-0.5,0.4-0.9,0.5-1.4c0.1-0.3,0.2-0.5,0.2-0.9c0-0.4,0-0.7,0.2-1.1c0.1-0.1,0.2-0.3,0.3-0.4c0.2-0.3,0.4-0.6,0.8-0.8   c0.1,0,0.1-0.1,0.2-0.1c0.3-0.2,0.5-0.4,0.8-0.5c0.2-0.1,1-0.5,1.1-0.7c-0.3,0.1-0.1,0-0.3-0.1c-0.1,0-1.2,0.2-1.3,0.3   c-0.1,0-0.2-0.1-0.3-0.1c-0.2,0-0.7,0-0.9,0.1c-0.2,0.1-0.8,0-1,0c-0.2,0-1.7,0.1-1.8,0c-0.1,0-0.2,0-0.2,0c-0.2,0-0.5-0.1-0.7-0.2   c-0.1-0.1-0.2-0.2-0.3-0.3c-0.1-0.1-0.2-0.3-0.1-0.5c0.1-0.1,0-0.3,0-0.4c0-0.3,0-0.4,0-0.6c0-0.1,0-0.4,0-0.5   c-0.1-0.2-0.1-0.3-0.1-0.5c0,0,0.1-0.1,0.2-0.1c0.2,0.1,0.3,0.1,0.5,0.1c0.1,0,0.2,0,0.2,0.1c0.1,0.3,0.5,0.2,0.8,0.3   c0.2,0.1,0.4,0.2,0.6,0.2c0.6,0,1.1,0.3,1.6,0.5c0.3,0.1,0.6,0.3,1,0.4c0.2,0.1,2.7,1.6,2.7,1.6c0.2,0.1,0.4,0.1,0.6,0.1   c0.5,0,1,0.1,1.5,0.3c0.3,0.1,0.5,0.2,0.8,0.3c0.1,0,0.2,0,0.3,0c0.1,0,0.2,0,0.3-0.1c0.1,0,0.2-0.1,0.2-0.2c0-0.1,0-0.2-0.1-0.2   c-0.1-0.1-0.1-0.1-0.2-0.1c-0.4-0.2-0.7-0.4-1.1-0.5c-0.3-0.1-0.6-0.2-0.9-0.3c-0.3,0-0.6,0-0.9-0.2c-0.2-0.1-0.4-0.1-0.5-0.2   c-0.5-0.2-1-0.4-1.4-0.8c-0.2-0.2-0.5-0.4-0.8-0.4c-0.3-0.1-0.7-0.2-1-0.1c0,0-0.1,0-0.2,0c-0.2-0.1-0.4-0.2-0.6-0.3   c-0.5-0.2-1-0.5-1.5-0.7c-0.4-0.2-0.7-0.4-1-0.6c-0.1-0.1-0.2-0.2-0.3-0.3C63,60.3,62.6,60.3,62.2,60.1z M63.4,68.6   c0.5,0.3,1.4,0.1,0.8,0.6c-0.1,0.1-0.1,0.2-0.2,0.2c-0.2,0-0.3,0.3-0.6,0.2c-0.1-0.2-0.2-0.5-0.3-0.7   C63.1,68.7,63.1,68.7,63.4,68.6z M59,68.2c-0.1,0.2-0.2,0.6-0.2,1c0,0.5-0.3,0.7-0.4,1c0,0.2-0.5,0.1-0.7,0   c-0.2-0.1-0.8-0.1-1.5-0.4c-0.6-0.3-1.7-0.6-2-0.7c-0.2-0.1-1.1-0.2-1.3-0.3c-0.1-0.1-1.2-0.6-0.2-0.6l2.4-1.2c0,0,0.6-0.4,0.9-0.3   c0.3,0,0.7-0.2,0.7-0.2s0.6,0.1,0.7,0c0.1-0.2,1-0.1,1.2-0.1c0.2,0-0.1,0.3,0.1,0.7C59,67.3,59.1,68,59,68.2z M62.8,65.2   c0,0,0,0.1,0,0.2c-0.2,0.2-0.3,1.5-0.4,1.7c-0.1,0.2-0.1,0.3-0.2,0.4c0,0-0.1,0.1-0.2,0.1c-0.1,0-1.7-0.2-1.9-0.3   c-1-0.4-1.1-0.8-0.4-1c0-0.1,0.1-0.2,0.2-0.2c0.2-0.1,0.5-0.2,0.7-0.3c0.1-0.1,0.2-0.1,0.3-0.2c0.2-0.1,0.8-0.2,0.9-0.3   c0,0,0.1-0.1,0.1-0.1c0.2,0,0.4-0.1,0.6-0.1C62.7,65,62.7,65.1,62.8,65.2z"/>
	<g>
		<path class="st4" d="M49.4,70.1c-0.2,0-0.4-0.1-0.5-0.2c-0.1,0-0.1-0.1-0.2-0.1l-0.3-0.1l0.3-0.1c0.4-0.1,0.6,0,0.9,0.4l0.1,0.2    l-0.2,0C49.5,70.1,49.5,70.1,49.4,70.1z"/>
	</g>
	<path class="st4" d="M45.6,67c-0.2-0.1-0.4-0.2-0.6,0c-0.2,0.2-1.3-0.1-1.7,0.1c-0.3,0.2,0,0.3,0,0.4c0.1,0.1,0.4,1.3,0.6,1.5   c0,0,0.1,0.3,0.5,0.7c0.4,0.3,0.3,0.1,0.4,0.1c0.1,0,0.1-0.3,0.2-0.3c0.1-0.1,0.5-1.9,0.6-2.1c0.1-0.1,0.1-0.2,0.1-0.3   C45.7,66.9,45.6,67,45.6,67z"/>
	<path class="st4" d="M34.9,67.4c0.2,0.1,1.6-0.1,1.6-0.1c0.1,0,0.2,0,0.3,0c0,0,0,0,0.1-0.1l0.6-0.1l0.7-0.3c0,0,0-0.3-0.6-0.5   c-0.6-0.2-2.6-1.7-2.6-1.7l-1.3-1.1l-0.7-0.4c0,0-0.2,0.2,0,0.7c-0.1,0.2-0.2,0.3-0.1,0.5c0.1,0.1,0.1,0.2,0.1,0.4   c0,0.2,0.1,0.3,0.3,0.4c0.1,0.1,0.3,0.3,0.4,0.4l0.2,0.7l0.5,0.6C34.5,66.8,34.7,67.3,34.9,67.4z"/>
	<path class="st4" d="M54.5,65.9c0.3-0.2,0.2-0.5,0.3-0.6c0.5-0.2,0-1.4,0-1.4s-0.5-0.6-0.4-0.7c0-0.1-0.6-0.7-0.7-0.9   c0-0.2-0.6-0.5-0.7-0.7c-0.2-0.2-0.7-0.3-0.9-0.3c-0.2,0-0.8-0.2-1-0.2c-0.3,0-2.8-0.6-3.1-0.8c-0.3-0.1-1.3-1-1.5-1.1   c-0.2-0.1-0.8-0.5-0.6-0.5c0.2,0-0.5-0.3-0.4-0.3c0.2,0-0.3-0.4-0.2-0.2c0,0.2-0.6-0.5-0.9-0.7c-0.5-0.4-1-0.4-1.3-0.4   c-0.3,0-2.8-0.2-3.2-0.2c-0.1,0-1.8,0.2-1.9,0.2c-0.2,0.1-0.8-0.1-1.1,0c-0.2,0.1-1,0.4-1,0.4c0,0.7,0,1.4,0,2.2   c0,1.2-1,2.5,0.1,3.7c0.4,0.4,0.7,1,1.1,1.6c0,0,0,0,0,0c0.1,0.1,0.1,0.2,0.2,0.3c0.2,0.2,0.3,0.5,0.5,0.7c0,0.1,0.1,0.2,0.2,0.3   c0,0,0.1,0,0.1,0.1c0.2,0.1,0.3,0.2,0.5,0.2c0,0,0,0,0.1,0c0.1,0,0.2,0,0.2,0c0.2,0,0.4,0,0.6-0.1c1.7-0.8,2.1-1.3,3.5-0.9   c1.4,0.4,3.7,2,4.4,2.7c0.3,0.3,1.3,0.3,2.3,0.3c0.3,0.1,1,0.2,1.5,0.3c0.1-0.1,0.3-0.3,0.4-0.4c0.1-0.1,0.1-0.1,0.2-0.1   c0.1-0.1,0.2-0.2,0.3-0.2c0.2-0.1,0.5-0.3,0.8-0.5c0.2-0.1,0.4-0.5,0.6-0.6c0.2,0,0.4-0.1,0.6-0.2C54.2,66.4,54.1,66,54.5,65.9z    M37,60.4c0,0.5,0.1,1.2-0.2,0.9c-0.4-0.3-0.4-0.8-0.4-0.8C36.8,60.3,37.1,60,37,60.4z M41.5,64.2c-0.2,0.1-0.6,0.1-1.1,0.8   c-0.4,0.7-1.5,0.3-1.9,0.6c-0.4,0.3-1-1-1.2-1.4c-0.2-0.4-0.7-1.8-1-2.1c-0.3-0.3,0.1-0.4,0.4-0.4c0.3,0.1,1.6,0.8,1.9,0.9   c0.3,0.1,1.7,0.8,2.2,0.8C41.4,63.5,41.7,64.1,41.5,64.2z M50.2,64.5c-0.1,0.3-0.6,0.7-1.1,1.5c-0.5,0.8-0.9,1.6-1.3,1.7   c-0.3,0.1-0.8-0.3-0.8-0.5c0-0.2-0.8-1.2-0.8-1.2l-0.5-0.7c0,0-0.3,0-0.5-0.3c-0.2-0.3,0-0.6-0.2-0.8C44.9,64,44.6,64,44.5,64   c-0.1-0.1-0.8-0.8-0.8-1.2c0.1-0.4,0.4-0.1,1.1,0c0.5,0.1,3.1,0.9,3.3,1C48.3,63.9,50.3,64.2,50.2,64.5z M52.4,65.6   c-0.1,0.1-0.6,0.4-0.8,0.5c-0.2,0.1-0.4-0.1-0.6-0.3c-0.2-0.2-0.4-0.6-0.5-0.7c-0.1-0.1-0.2-0.2,0.1-0.2c0.3,0,0.5-0.1,0.7-0.1   c0.2,0,0.2,0,0.5,0.1c0.3,0.1,0.7,0.1,1,0c0.3,0,1-0.2,1.1-0.1c0.2,0.1,0.8-0.1,0.6,0.1c-0.2,0.1-1,0.2-1.2,0.3   C53.3,65.3,52.5,65.4,52.4,65.6z"/>
	<g>
		<path class="st4" d="M48.4,69.5l-0.1,0l-0.3-0.3l0.2-0.1l0.1,0c0,0,0.1,0.1,0.1,0.1l0.3,0.2L48.4,69.5z"/>
	</g>
	<path class="st4" d="M39.4,68.4c0,0-1.1-0.2-1.1-0.2c-0.1,0-0.8-0.1-0.8-0.1s-0.6,0.1-0.8,0.1c-0.2,0-0.6,0-0.9,0c-0.3,0-0.7,0-1,0   c0-0.1,0-0.2-0.1-0.2c-0.2,0.1-0.1,0.3-0.2,0.4c0,0,0,0,0,0.1c0,0,0,0,0,0c0,0.1,0,0.3,0,0.3c0.1,0.1,0.1,0.2,0.2,0.4   c0,0.1,0.1,0.2,0.1,0.3c0.1,0.3,0.1,0.5,0.4,0.7c0.1,0.1,0.1,0.2,0.1,0.3c0.1,0.2,0.2,0.3,0.3,0.5c0,0.1,0.1,0.1,0.2,0.2   c0.2,0.3,0.4,0.6,0.7,0.9c0.2,0.2,0.4,0.4,0.5,0.6c0.3,0.4,0.5,0.9,0.7,1.3c0.1,0.2,0.3,0.4,0.2,0.6c0.2,0.5,0.1,1,0.2,1.5   c0,0.2,0,0.3,0,0.5c-0.1,0.2-0.1,0.4-0.1,0.6c0,0.1,0,0.2,0,0.3c0.1,0.2,0.1,0.3,0,0.5c-0.1,0.3-0.2,0.6-0.3,0.9c0,0.1,0,0.2,0,0.3   c0.1,0.2,0.1,0.5,0,0.7c-0.1,0.2-0.3,0.5-0.2,0.8c0.2-0.1,0.3,0.3,0.5,0.1c0-0.1-0.2-0.2,0-0.2c0,0,0-0.1,0-0.1   c-0.1-0.3,0-0.6,0.1-0.8c0.1-0.3,0.3-0.6,0.2-0.9c0.1-0.3,0.1-0.7,0.3-1c0.1-0.2,0-0.4,0.2-0.6c0,0,0,0,0-0.1c-0.1-0.3,0-0.7,0.1-1   c0-0.1,0-0.2,0-0.3c0-0.1,0-0.3,0-0.4c0.1-0.4,0.2-0.8,0.3-1.2c0,0,0-0.1,0-0.1c0-0.4-0.1-0.7-0.1-1.1c0-0.4-0.1-0.8,0-1.1   c0-0.1,0-0.2,0-0.3c0-0.2,0-0.3,0.1-0.5c0.1-0.1-0.1-0.2,0-0.3c0-0.1,0.1-0.3,0-0.3c0-0.1,0.1-0.2,0.1-0.4c0,0,0,0,0.1-0.1   c0.1-0.1,0-0.2,0-0.2c0-0.1,0-0.1,0-0.2c0,0,0,0,0.1,0c0,0,0,0,0-0.1c0-0.1,0-0.2,0.1-0.3L39.4,68.4z"/>
	<g>
		<path class="st4" d="M47.5,69.1c-0.1,0-0.1,0-0.1,0c-0.2-0.1-0.4-0.2-0.7-0.4c-0.2-0.1-0.2-0.2-0.1-0.5l0-0.2l0.2,0.1    c0.1,0.1,0.1,0.1,0.2,0.1c0.1,0.1,0.2,0.2,0.3,0.3c0,0,0.1,0.1,0.1,0.1c0.1,0.1,0.2,0.1,0.3,0.2l0.2,0.2l-0.3,0    C47.6,69.1,47.6,69.1,47.5,69.1C47.5,69.1,47.5,69.1,47.5,69.1z"/>
	</g>
	<path class="st5" d="M65.2,30.8c0.2,0,0.4,0,0.6-0.1c0.2-0.1,0.4-0.1,0.6-0.1c0.2,0,0.3-0.1,0.3-0.2c0-0.1,0-0.2-0.1-0.2   c-0.1,0-0.2,0-0.2,0c-0.4-0.1-0.4-0.1-0.6,0.2c-0.2-0.1-0.5-0.2-0.8,0c0,0.1,0,0.1,0,0.2C65,30.8,65.1,30.9,65.2,30.8z"/>
	<path class="st5" d="M67.3,30.5c0.1,0,0.2-0.1,0.2-0.1c0-0.1,0-0.2-0.2-0.2c-0.2,0-0.4,0-0.5-0.1c0,0,0,0.1,0,0.1   C67,30.4,67.1,30.5,67.3,30.5z"/>
	<path class="st5" d="M41.9,35.6c0-0.1-0.1-0.1-0.1-0.2c0-0.4-0.2-0.7-0.2-1.1c0-0.3-0.1-0.6-0.2-0.9c-0.1-0.2-0.1-0.4-0.2-0.6   c-0.1-0.3-0.2-0.6-0.3-0.9c0-0.3,0-0.5-0.2-0.7c0-0.1,0-0.2,0-0.3c0-0.2-0.1-0.3-0.2-0.3c-0.1,0-0.2,0-0.3,0.2   c-0.1,0.1-0.1,0.2-0.1,0.3c-0.1,0.4,0.1,0.8,0.3,1.2c0.1,0.1,0.1,0.2,0.1,0.2c0,0.5,0.2,1,0.4,1.4c0,0.1,0,0.2,0,0.2   c0,0.4,0,0.8,0.3,1.2c0.1,0.1,0.2,0.3,0.1,0.5c0,0.3,0.1,0.5,0.4,0.5C42.1,36,42,35.8,41.9,35.6z"/>
	<path class="st2" d="M49.9,39.8c0,0,0.1,0,0.1,0.1c0.2,0.1,4.8,3.2,5.1,3.2c0.3,0.2,0.7,0.6,0.9,0.5c0.1-0.1-0.1-0.4,0-0.5   c0.1,0,0.1-0.1,0.1-0.2c0-0.2,0-0.4,0-0.5c0-0.2-0.1-0.4-0.1-0.6c0-0.1,0-0.2-0.1-0.3c-0.1-0.2-0.1-0.7-0.2-1   c-0.2-0.3-0.1-1.1-0.3-1.3c-0.2-0.2-0.9,0-1.2,0.1c-0.4-0.2-0.9,0.1-1.3-0.1c-0.1,0-0.2,0-0.3,0c-0.2,0.1-0.3,0.1-0.5,0.1   c-0.1,0-0.2,0-0.2,0c-0.5-0.1-0.8-0.2-1-0.2c-0.2,0-0.4,0-0.5,0.1c-0.2,0.1-0.3,0-0.5,0c-0.3-0.1-0.1,0.2-0.1,0.3   C49.9,39.7,49.9,39.7,49.9,39.8z"/>
	<path class="st2" d="M46.1,45.4c0.1,0,0.1-0.1,0.2-0.2c0,0,0,0,0,0L46.1,45.4z"/>
	<path class="st2" d="M49.4,39.3C49.4,39.4,49.3,39.4,49.4,39.3C49.3,39.4,49.4,39.4,49.4,39.3z"/>
	<path class="st2" d="M44.9,46c0.3-0.1,0.8-0.4,1.2-0.7L44.9,46C44.9,46,44.9,46,44.9,46z"/>
	<path class="st5" d="M64.6,30.6c-0.1,0-0.1,0-0.2,0c-0.3,0-0.7,0.1-1,0.1c-0.2,0-0.4,0-0.5,0.2c-0.2,0-0.5-0.1-0.6,0   c-0.2,0.1-0.4,0.1-0.6,0.1c-0.1,0-0.2,0-0.3,0.1c-0.1,0.1-0.2,0.1-0.4,0.1c-0.1,0-0.1,0-0.2,0c-0.4,0.1-0.7,0.1-1.1,0.4   c-0.1,0.1-0.2,0.1-0.3,0.1c-0.5,0-1,0.1-1.4,0.4c-0.1,0-0.2,0.1-0.3,0.1c-0.3,0-0.6,0.1-0.9,0.3c-0.1,0-0.2,0.1-0.3,0.1   c-0.5,0.1-0.9,0.2-1.3,0.5c-0.1,0-0.2,0.1-0.2,0.1c-0.1,0-0.3,0-0.4,0.1c-0.2,0.1-0.3,0.1-0.5,0.1c-0.4,0.1-0.7,0-1-0.3   c-0.1-0.1-0.3,0-0.4-0.1c-0.1-0.1-0.3-0.1-0.4-0.1c-0.5-0.3-1-0.1-1.6,0c-0.2,0-0.3-0.1-0.5,0c-0.1,0.1-0.2-0.2-0.4-0.2   c-0.1,0-0.1,0-0.2,0c-0.2,0.1-0.5,0.1-0.7,0.1c-0.2,0-0.4-0.1-0.6,0.1c0,0-0.1,0-0.2,0c-0.3,0-0.6-0.3-0.6-0.6c0-0.3-0.1-0.6-0.1-1   c0-0.1,0-0.2,0-0.3c0-0.3,0-0.7,0-1c0-0.2,0-0.4,0-0.6c0-0.2,0.1-0.4,0.1-0.5c0-0.4,0.1-0.8,0.2-1.1c0.1-0.4,0.3-0.8,0.4-1.2   c0.1-0.2,0-0.4,0.1-0.6c0.2-0.5,0.4-1.1,0.6-1.6c0.3-0.7,0.6-1.4,0.9-2.1c0.2-0.5,0.5-1,0.8-1.5c0.2-0.4,0.4-0.8,0.6-1.2   c0.1-0.3,0.3-0.5,0.4-0.8c0.2-0.3,0.4-0.6,0.5-0.9c0.2-0.6,0.5-1.3,0.8-1.9c0.3-0.6,0.6-1.2,0.8-1.9c0-0.1,0-0.2,0-0.2   c0.1-0.3,0.1-0.6,0.2-0.8c0.3-0.7,0.6-1.4,0.6-2.2c0,0,0-0.1,0-0.1c0.1-0.3,0.2-0.5,0.3-0.8c0.3-0.6,0.5-1.2,0.8-1.8   c0-0.1,0.1-0.2,0.1-0.3c-0.1-0.4,0.2-0.8,0.3-1.2c0.1-0.4,0.3-0.7,0.4-1c0-0.1,0.1-0.2,0-0.3c0,0,0-0.1,0-0.1   c0-0.3,0.1-0.5,0.2-0.8c0.2-0.6,0.5-1.2,0.8-1.7c0-0.1,0.1-0.2,0-0.4c0-0.2,0.1-0.2,0.3-0.3c0.1,0,0.3-0.5,0.3-0.5   c0.3-1-0.8-1.3-1.1-0.5c-0.1,0.4-0.1,1-0.2,1.4c0,0,0,0.1,0,0.1c0.1,0.3,0,0.6-0.2,0.8c-0.2,0.5-0.5,1-0.6,1.5   C56,4.7,55.9,4.9,56,5.1c0,0.1,0,0.2,0,0.3c-0.1,0.4-0.3,0.7-0.4,1.1c0,0.1-0.1,0.2-0.1,0.3c-0.3,0.5-0.4,1-0.5,1.6   c0,0.1,0,0.2-0.1,0.2c-0.2,0.5-0.4,1-0.6,1.5c-0.2,0.4-0.4,0.8-0.4,1.3c0,0.2-0.1,0.4-0.2,0.7c-0.1,0.2-0.2,0.4-0.2,0.5   c-0.1,0.4-0.3,0.7-0.4,1.1c-0.1,0.4-0.3,0.7-0.4,1.1c-0.1,0.4-0.3,0.8-0.5,1.1c-0.2,0.2-0.3,0.5-0.4,0.8c-0.1,0.3-0.2,0.5-0.4,0.8   c-0.3,0.5-0.6,1-0.8,1.6c-0.1,0.2-0.2,0.5-0.3,0.7c-0.3,0.6-0.7,1.2-1,1.8c-0.1,0.2-0.2,0.4-0.3,0.6c-0.2,0.4-0.4,0.8-0.6,1.2   c-0.2,0.4-0.4,0.7-0.5,1.1c-0.1,0.2-0.1,0.3-0.2,0.5c-0.2,0.3-0.3,0.7-0.3,1.1c0,0.1,0,0.2-0.1,0.3c-0.1,0.4-0.3,0.9-0.4,1.3   c-0.1,0.5-0.1,0.9-0.3,1.4c0,0-0.2,0.6-0.5,1.5c-0.2,0.7-0.3,0.8-0.5,1.2c-0.2,0.5-0.3,1.1-0.6,1.7c-0.3,0.6-0.6,1-0.9,1.4   c-0.2,0.5-0.5,1-0.7,1.5c-0.2,0.6-0.7,0.6-0.7,0.6c-0.2-0.2-0.2-0.4-0.3-0.6c0,0,0-0.1-0.1-0.1c-0.1-0.1-0.2,0-0.3,0   c0,0.2,0,0.4,0.1,0.5c0,0.1,0.1,0.2,0.1,0.2c-0.1,0.3,0,0.6,0.1,1c0,0.3,0.1,0.7,0.1,1c0,0.1,0,0.2,0,0.2c0,0.3,0.3,0.3,0,0.5   c-0.1,0.1,0.1,0.3,0.1,0.5c0,0.1,0,0.4,0,0.4c0,0,0,0,0,0c0.1,0.3,0.2,0.5,0.3,0.6c0.1,0.1,0.2,0.3,0.3,0.5l0.4,0.9   c0.1,0.2,0.2,1,0.4,1.5l0.1,0.2l0.4,1.5l0.1,1.5l0.2,0.2c-0.1-0.5,0.3-1.7,0.3-1.7c-0.1,0-0.1-0.1-0.1-0.1c0-0.1,0-0.1,0-0.2   c0,0,0.1-0.1,0.2-0.1c0.1,0,0.1,0.1,0,0.3l1.2-0.6l0.2-0.2c0-0.1,0-0.2,0-0.3c0,0,0-0.1,0-0.1l0.6-1.3c0,0,0.4-0.8,0.6-1.3   c0.2-0.4,0.6-1,0.9-1.5c0.3-0.5,0.7-0.8,0.9-1.2c0,0,0.1-0.1,0.1-0.1c0-0.1,0.1-0.1,0.1-0.2c0.2-0.1,0.3-0.1,0.4-0.2   c3.2-2.5,3.5-3.2,3.8-3.6c0.3-0.2,0.4-0.5,0.5-0.7c0.1-0.2,0.5-0.7,0.6-0.9c0-0.1,0.3-0.3,0.3-0.3c0.3-0.1,0.5-0.1,0.7-0.4   c0,0,0.1,0,0.1,0c0.3-0.1,0.5-0.1,0.8-0.2c0.2,0,0.4-0.1,0.6-0.2c0.2-0.1,0.4-0.1,0.5-0.2c0.1-0.1,0.3-0.2,0.4-0.2   c0.4,0,0.7-0.2,1.1-0.3c0.1,0,0.2-0.1,0.3-0.1c0.1,0,0.1-0.1,0.2-0.1c0.4,0,0.8-0.2,1.3-0.3c0.1,0,0.2-0.1,0.3-0.1   c0.3-0.1,0.6-0.1,1-0.2c0.1,0,0.3,0,0.4,0c0.1,0,0.2,0,0.3-0.1c0.1-0.1,0.3-0.1,0.5-0.1c0.1,0.1,0.3,0,0.4-0.1   c0.1,0,0.1-0.1,0.2-0.2c0.1,0,0.1,0,0.2,0c0.1,0,0.2,0,0.3,0c0.1,0,0.2-0.1,0.2-0.3C64.9,30.6,64.7,30.6,64.6,30.6z M47.2,38.4   c-0.2,0.4,0,0.5-0.2,0.9c0,0-0.1,0.9-0.3,1.4c0,0-0.1,0.5-0.1,0.5c0,0.3-0.1,0.3-0.1,0.7c0,0.2,0,0.4-0.1,0.6   c-0.1,0.3-0.3,0.6-0.4,1c-0.1,0.3-0.4,0.7-0.5,1C45.4,44.6,45,45,45,44.9c-0.1-0.1-0.3-0.8-0.4-1c-0.1-0.1-0.2-0.3-0.3-0.4   c-0.1-0.1-0.2-0.3-0.2-0.4c0-0.4-0.2-0.6-0.3-1c0,0-0.1-0.2-0.1-0.2c-0.1-0.1-0.1-0.3-0.1-0.5c0-0.1-0.1-0.3-0.2-0.4   c-0.1-0.3-0.2-0.6-0.3-0.9c0-0.2-0.1-0.6,0-0.8c0.1-0.3,1.3-0.7,2-1.1l0,0l1-0.5c0.2,0,0.5-0.1,0.6-0.1   C47.1,37.7,47.4,38,47.2,38.4z"/>
	<path class="st2" d="M68.4,37.3c-0.1-0.1-0.1-0.2-0.2-0.3c-0.3,0.3-0.6,0.6-0.8,1c-0.1,0.2-0.3,0.3-0.3,0.5c-0.1,0-0.1-0.1-0.2-0.1   c0,0.1-0.1,0.2-0.1,0.2c-0.2,0-0.2,0.2-0.3,0.3c-0.3,0.4-0.5,0.7-0.8,1.1c-0.3,0.4-0.6,0.9-1.1,1.1c0,0-0.1,0.1-0.1,0.1   c-0.1,0.2-0.3,0.4-0.4,0.5c-0.2,0.2-0.4,0.5-0.6,0.7c-0.3,0.2-0.6,0.5-0.8,0.7c-0.1,0.1-0.3,0.2-0.5,0.3c-0.2,0-0.3,0.1-0.4,0.2   c-0.1,0.1-0.3,0.2-0.4,0.3c-0.4,0.2-0.8,0.4-1.2,0.5c-0.1,0-0.3,0.1-0.4,0.1c-0.5,0-1.1,0-1.6-0.1c-0.2,0-0.3,0-0.5,0   c-0.3,0-0.6,0-0.8-0.1c-0.2-0.1-0.3-0.3-0.4-0.4c-0.1-0.2-0.4-0.2-0.4,0c-0.1,0.2-0.2,0.3-0.4,0.4c-0.5,0.3-0.9,0.6-1.4,0.7   c-0.1,0-0.1,0.1-0.2,0.1c-0.3,0.2-0.6,0.2-0.8,0c-0.2-0.2-0.9-0.1-1.1-0.1c-0.3,0-0.7,0-0.8-0.1c0-0.1-1.2-0.1-1.2-0.1   c-0.1,0-1.1,0.1-1.2,0.1c-0.2,0-0.5-0.1-0.7,0c-0.3-0.1-0.5,0.1-0.7,0.2c-0.1,0.1-0.3,0.2-0.4,0.1c-0.2,0-0.6,0.2-0.7-0.1   c-0.1,0.1-0.1,0.1-0.2,0.2c-0.4,0.3-1,0.5-1.2,0.7c0,0,0,0,0,0c0,0-0.1,0.1-0.2,0c0,0-0.4,1.2-0.3,1.7c0,0.1,0,0.2,0.1,0.2   c0.1,0.1,0.4,0.3,0.6,0.5c0.3,0.2,0.6,0.5,0.9,0.7c0.4,0.2,0.8,0.6,1.1,0.8c0.3,0.2,0.8,0.7,1.3,1.1c0.2,0.1,0.7,0.5,0.9,0.6   l0.7,0.4l0.3,0.2c0.5,0.3,1.2,0.6,1.5,0.7c0,0,0,0,0,0c0.8,0.2,1.2,0,1.9,0.6c0.2-0.6,0.5-0.1,0.7,0.1c0.1,0.1,0.2,0.2,0.3,0.4   c0.3,0.3,0.5,0.8,1,1.3c0.1,0.1,0.1,0.1,0.2,0.2c0.1,0,2.7,1.8,1.1-0.2c0-0.1-0.1-0.2,0-0.2c0-0.3-0.1-0.6,0.2-0.8   c0.1-0.1,0.2-0.3,0.3-0.5c0.2-0.5,0.5-1,0.8-1.5c0.3-0.4,0.5-0.9,0.8-1.3c0.1-0.2,0.2-0.5,0.5-0.7c0.1-0.1,0.1-0.2,0.2-0.3   c0.1-0.1,0.1-0.2,0.2-0.3c0.1-0.2,0.2-0.4,0.3-0.7c0.2-0.4,0.4-0.8,0.6-1.1c0.2-0.2,0.3-0.5,0.4-0.7c0.1-0.3,0.3-0.6,0.5-0.8   c0.3-0.3,0.6-0.5,0.7-0.9c0-0.1,0.1-0.1,0.1-0.2c0.2-0.4,0.5-0.7,0.7-1.1c0.1-0.2,0.2-0.4,0.3-0.5c0.2-0.3,0.4-0.5,0.6-0.8   c0.2-0.3,0.4-0.6,0.6-0.8c0.6-0.5,0.9-1.1,1.3-1.7c0.1-0.1,0.1-0.2,0.2-0.3c0.1-0.1,0.1-0.3,0.2-0.4c0.1-0.2,0.3-0.3,0.2-0.6   c0.1,0,0.2,0,0.4,0C67.5,38.5,67.9,37.9,68.4,37.3z M58.4,47.6c0.2,0.3-1.2,4.9-1.3,5.1c-0.1,0.4-0.1,0.9-0.5,0.9c0,0,0,0,0,0   l-0.9-0.1c0,0-1.3-0.6-1.4-0.7c-0.1-0.1-0.9-0.5-0.9-0.5l-2.3-0.6l-1.8-1.3l-1-0.9l-0.5-0.6c-0.4-0.1-0.7-0.6-0.8-0.7   c-0.4-0.3-0.7-0.7-0.4-0.9c0.3-0.2,1.2-0.2,1.6-0.4c0.3-0.1,0.9-0.5,1.2-0.5c0.4,0,0.9-0.1,1-0.2c0.3-0.1,1.1-0.1,1.3-0.3   c0,0,1.2-0.1,1.3-0.1c0,0,0,0,0,0c0.1,0,0.2,0,0.3-0.1c0.1,0.1,0.1,0.1,0.2,0.2c0.2-0.1,0.4-0.1,0.6-0.1c0.1,0,0.5,0,1,0.1   c0.2,0,0.4-0.1,0.6-0.1c0.2,0,0.2,0.1,0.4,0.1c0,0.1-0.2,0.1-0.4,0.2c-0.1,0-0.5,0-0.7,0.1c-0.7,0.2-1.2,0.4-1.5,0.5   c-0.4,0.1-0.7,0.3-0.8,0.5c0.2,0.5,0.3,0.8,0.4,1.4c0.1,0.4,0.4,1.4,0.7,1.8c0.3,0.4,0.5,1,0.6,1.1c0.2,0,0.6-0.2,0.7-0.4   c0.2-0.4,1.6-2.4,2.9-4.1c0.1-0.1,0.2-0.3,0.3-0.4C58.7,46.4,58.3,47.5,58.4,47.6z"/>
	<g>
		<path class="st6" d="M31,30.7l0-0.1c0,0,0,0,0,0c0-0.1-0.1-0.1,0-0.2c0-0.1,0.1-0.1,0.1-0.1c0,0,0,0,0.1,0l0.2-0.1l0,0.2    c0,0,0,0.1,0,0.1c0,0.1,0,0.1,0,0.2c0,0.1-0.1,0.1-0.1,0.1c0,0,0,0,0,0L31,30.7z"/>
	</g>
	<g>
		<path class="st6" d="M31.6,36.8l0-0.1c0,0,0,0,0,0c0-0.1,0-0.1,0-0.2c0-0.1,0.1-0.1,0.2-0.1c0,0,0,0,0.1,0l0.2-0.1l0,0.2    c0,0,0,0.1,0,0.1c0,0.1,0,0.1,0,0.2c0,0.1-0.1,0.1-0.2,0.1c0,0,0,0,0,0L31.6,36.8z"/>
	</g>
	<g>
		<path class="st6" d="M31.5,35.7l0-0.2c0-0.2,0-0.4,0.3-0.6l0.1-0.1l0,0.1c0.1,0.3,0,0.5-0.3,0.6L31.5,35.7z"/>
	</g>
	<g>
		<path class="st6" d="M30.9,29.9c-0.1,0-0.2-0.1-0.2-0.1l0-0.1l0-0.1c0-0.1,0.1-0.1,0.1-0.2l0.1-0.2l0.1,0.1    c0.1,0.1,0.1,0.2,0.1,0.3C31.1,29.7,31.1,29.8,30.9,29.9L30.9,29.9z"/>
	</g>
	<g>
		<path class="st6" d="M31.5,31.4l-0.1,0c0,0,0,0,0,0l-0.1,0l0.1-0.4l0.1,0.1c0,0,0,0,0.1,0l0.1,0L31.5,31.4z"/>
	</g>
	<g>
		<path class="st6" d="M31.7,34.4l-0.1-0.1c-0.2-0.3,0.1-0.5,0.2-0.5l0.1-0.1l0.1,0.1C32,33.9,32,34,32,34.1c0,0.1-0.1,0.2-0.2,0.2    L31.7,34.4z"/>
	</g>
	<path class="st6" d="M49.6,52c-0.3,0-2.3-0.4-2.6-0.6c-0.2-0.2-1.9-0.2-2.1-0.3c-0.2,0-1.5-0.3-1.7-0.1c-0.2,0.1-2.4-0.5-2.4-0.5   s-0.2-0.5,0.8-0.8c1-0.3,1.3-0.4,1.8-0.6c0.5-0.2,1.4-0.4,2.1-0.3c0.1,0,0.2,0.1,0.3,0.1l-0.8-0.6l0,0c-0.2-0.2-0.5-0.4-0.6-0.5   c-0.1,0-0.1-0.1-0.1-0.2l-0.2-0.2l-0.1-1.5l-0.4-1.5l-0.1-0.2c-0.2-0.6-0.3-1.3-0.4-1.5L42.9,42c-0.1-0.2-0.2-0.4-0.3-0.5   c-0.1-0.1-0.2-0.4-0.3-0.6c0,0.2-0.1,0.3,0,0.6c0,0.1-0.1,0.5,0,0.6c0.2,0.2,0,0.3,0,0.6c0,0.1,0,0.1-0.1,0.2   c-0.7-0.1-1.6-0.1-1.8-0.2c-0.4-0.1-0.7-0.2-1.2-0.3c-0.5-0.1-1.6-0.3-1.6-0.3s-0.8-0.5-1.2-0.5c-0.7-0.1-1.7-0.5-2-0.6   c-0.3-0.2-1.1-0.5-1.5-0.7c0-0.1,0-0.1,0-0.2c-0.9-4.1-1.1-2.7-1.1-2.2c0,0,0,0.1,0,0.1l0.1,0.8c0,0-0.1,0.1-0.1,0.1   c-0.1,0.2-0.1,0.2,0.1,0.3c0,0,0,0,0,0l0.1,0.4c-0.2,0.1-0.3,0.4-0.1,0.6C32,40,32,40.1,32,40.2c0,0.2,0,0.5,0,0.7   c0.1,0.2,0.1,0.4,0.2,0.6l0,0.8l-0.4,1.3c0,0,0,0,0,0c-0.1,0.1-0.3,0.3-0.5,0.6c0,0,0,0,0,0c0.4,0.1,0.8,0.2,1.1,0.2   c0.1,0,0.2,0,0.3,0c0.1,0,0.2,0,0.4,0.1c0.1,0,0.2,0.1,0.2,0.1c0.4,0.3,0.6,0.7,0.4,1.1l-1,1.8c0.2,0.1,0.5,0.3,0.7,0.5   c0.1,0.1,1,1.1,1,1.1c0.2,0.1,0.8,0.8,0.8,1c0,0.2-0.5,0.1-0.7,0.1c0,0.1-0.3,0-0.4,0c-0.1,0-0.3,0-0.5,0c-0.2,0-0.3-0.1-0.5-0.1   c-0.3,0.1-0.5-0.1-0.8-0.2c-0.2,0-0.1-0.1-0.1-0.3c0-0.2,0.1-0.3,0.2-0.5c0-0.1,0.1-0.3,0.1-0.3c0-0.1,0.1-0.1,0.1-0.2l0.2-0.8   l0.2-0.2c0,0-0.3-0.2-0.4,0c-0.1,0.2-0.1,0.2-0.1,0.3c-0.1,0.2-0.2,0.3-0.2,0.6L32.2,49l0,0.3C32,49.4,32,49.6,32,49.9l0,0.4l0,1   l-0.4,1.8c0.5,0.3,1.1,0.6,1.6,0.9c0.4,0.2,0.7,0.5,0.8,0.9c0,0.1,0.1,0.1,0.1,0.2c0.1,0.1,0.1,0.3,0.2,0.4   c0.2,0.2,0.2,0.6,0.6,0.7c0,0,0,0,0.1,0.1c0.1,0.2,0.2,0.2,0.3,0.1c0.2-0.1,0.3,0,0.4,0.2c0,0,0,0,0,0c0,0.1,0,0.2,0,0.3   c0.3-0.1,0.7-0.2,1-0.2l0.3-0.1l3.9-0.1c0,0,0.7,0,1.5-0.5c0.8-0.6,5.1-1.2,5.1-1.2l1.8-0.6l1.1-0.2c0,0,0,0,0-0.1   c0.1-0.1,0.4-0.2,0.8-0.2c0,0,0.8-0.5,0.8-0.6c0-0.2-0.2-0.2-0.2-0.2c0,0,0,0,0,0c-0.3-0.1-1-0.4-1.5-0.7L49.9,52l-0.1,0L49.6,52z    M33.2,51.3c0.3-0.1,0.3-0.1,0.4,0.2C33.3,51.5,33.3,51.5,33.2,51.3z M38.2,43.5c0.3,0,2.5-0.2,3.8-0.3c0,0.1,0.1,0.1,0.1,0.2   c-0.2,0.3-0.3,0.6-0.5,0.7c-0.2,0.3-1.4,1.4-1.7,1.7C39.8,46,39.6,46,39.4,46c-0.2-0.3-0.4-0.4-0.6-0.6c-0.2-0.2-0.6-0.6-0.8-0.9   c-0.2-0.3-0.3-0.5-0.4-0.7C37.9,43.6,38,43.5,38.2,43.5z M38.4,56c-0.4-0.2-1.2,0.3-1.9,0.1c-0.6-0.2-1.2-0.5-1.5-0.7   c-0.3-0.2,0.1-1.4,0.1-2c-0.1-0.6,0.6-1.8,0.7-2.4c0.1-0.5,0.4,0.5,0.6,0.7c0.2,0.2,1.4,1.8,1.8,2.2c0.5,0.4,1.4,1.2,1.3,1.6   C39.4,56,38.8,56.3,38.4,56z M39.8,47.7c0.1-0.1,0.1-0.3,0.2-0.4c0.1-0.2,0.3-0.3,0.5-0.6c0.2-0.3,0.6-0.9,0.6-0.9l0.6-1   c0,0,0.4-0.4,0.7-0.7c0.1,0.1,0.1,0.1,0.2,0.1c0.3,0.1,0.2,0.5,0.4,0.6c0.1,0.1,0.1,0.3,0.1,0.4c0,0.1,0,0.4,0.1,0.5   c0.1,0.2,0.2,0.3,0.2,0.5c0,0.3,0.2,0.2,0.2,0.6c0,0.1,0,0.1,0,0.2c0,0.2,0,0.4,0.1,0.5c0,0.2,0.1,0.3,0,0.4   c-0.1,0.1-0.1,0.2-0.1,0.3c-1.2,0.3-2,0-3.7-0.5C39.9,47.8,39.9,47.7,39.8,47.7z"/>
	<g>
		<path class="st6" d="M30.6,29.1l-0.1-0.2c0,0-0.1-0.1,0-0.2c0.1,0,0.1-0.1,0.2-0.1c0,0,0,0,0,0c0.1,0,0.1,0.1,0.2,0.1L31,29    L30.6,29.1z"/>
	</g>
	<g>
		<path class="st7" d="M1.2,41c0.1,0.1,0.2,0.1,0.3,0.2c0.2,0.1,0.5,0.2,0.7,0.4C2.5,41.8,3,41.9,3.4,42C3.7,42,4,42,4.3,42.2    c0.3,0.1,0.5,0.2,0.8,0.2c0.3,0,0.5,0.1,0.8,0.1c0.7,0.3,1.3,0.6,1.9,0.9c0.2,0.1,0.4,0.2,0.6,0c0,0,0.1,0,0.1,0    c0.5,0.2,1.1,0.4,1.6,0.7c0.4,0.2,0.9,0.4,1.3,0.6c0.1,0,0.2,0.1,0.3,0.1c0-0.1,0-0.1,0-0.1c-0.1-0.1-0.3-0.2-0.4-0.3    c-0.2-0.1-0.1-0.4-0.4-0.3c-0.1-0.2-0.3-0.3-0.5-0.4c-0.6-0.3-1.3-0.6-1.9-0.8c-0.4-0.2-0.8-0.3-1.2-0.4c-0.3-0.1-0.6-0.2-0.9-0.3    C5.9,42,5.4,41.8,5,41.6c-0.2-0.1-0.4-0.1-0.6-0.2c-0.2,0-0.4-0.1-0.7-0.1c-0.4-0.1-0.7-0.2-1.1-0.3c-0.1,0-0.5-0.3-0.6-0.3    c0-0.1-0.2-0.3-0.2-0.3c-0.1-0.1-0.5-0.1-0.6-0.1C1,40.4,1,40.6,1.1,40.8C1,40.9,1.1,41,1.2,41z"/>
		<path class="st7" d="M33.2,44.6c-0.1,0-0.1-0.1-0.2-0.1c-0.1,0-0.2-0.1-0.4-0.1c-0.1,0-0.2,0-0.3,0c-0.3-0.1-0.7-0.2-1.1-0.2    c0,0.1-0.1,0.2-0.1,0.2c-0.1,0-0.3,0-0.5,0.1c-0.8,0.1-1.9,0.7-2.1,0.7c-0.2,0-2.7,1.3-3.2,1.4c-0.4,0.1-2.5,0.1-3.5,0.1    c-0.1-0.1-0.3-0.2-0.4-0.3c-0.2-0.1-0.5-0.2-0.7-0.3c0,0-0.1,0-0.1-0.1c-0.1-0.2-0.3-0.2-0.5-0.2c-0.1,0-0.2-0.1-0.3-0.1    c-0.2-0.1-0.3,0-0.3,0.2c0,0.2-0.1,0.3,0.1,0.5c-0.2,0-0.4,0-0.5,0c-0.5-0.1-1,0-1.3-0.5c0,0-0.1-0.1-0.1-0.1    c-0.2-0.1-0.5-0.2-0.8-0.2c-0.6,0-1.2-0.2-1.7-0.4c-0.1,0-0.2-0.1-0.3-0.1c-0.3,0.1-0.6-0.1-0.9-0.2c-0.5-0.2-1-0.4-1.6-0.6    c-0.1,0-0.2,0-0.3,0.1c-0.1,0.1-0.1,0.2,0,0.3c0.1-0.1,0.1-0.1,0.2-0.2c0.1,0.1,0.2,0.2,0.3,0.3c1,0.5,1.9,1,2.9,1.4    c0.4,0.2,0.8,0.4,1.3,0.5c0.1,0,0.3,0.1,0.4,0.2c0.2,0.3,0.5,0.5,0.9,0.6c0.3,0.1,0.5,0.3,0.8,0.4c0.3,0.2,0.6,0.3,0.9,0.5    c0.3,0.1,0.5,0.2,0.8,0.3c0,0,0,0,0.1,0.1c0.2,0.1,0.4,0.3,0.7,0.4c0.3,0.2,0.7,0.4,1,0.6c0.2,0.1,0.2,0.3,0.1,0.5    c-0.1,0.2-0.2,0.2-0.4,0.2c0,0-0.1,0-0.1,0c-0.2,0-0.4,0-0.5,0.1c-0.3,0.1-0.6,0.3-0.9,0.4c-0.2,0.1-0.3,0.1-0.5,0.2    c-0.3,0.2-0.7,0.1-1,0.3c0,0-0.1,0-0.2,0c-0.2,0-0.3,0-0.4,0.2c-0.1,0.1-0.2,0.1-0.3,0.1c-0.2,0-0.5,0-0.7,0.1    c-0.2,0.1-0.4,0.2-0.6,0.1c0,0-0.1,0-0.2,0c-0.2,0.1-0.3,0.1-0.5,0.1c-0.2,0-0.3,0.1-0.5,0.1c-0.1,0-0.2,0.1-0.3,0.1    c-0.2,0-0.3,0-0.4,0.2c-0.1,0.1-0.2,0.1-0.3,0.1c-0.1,0-0.4,0-0.4,0c-0.1,0.1-0.3,0.1-0.4,0.1c-0.1,0-0.1,0-0.2,0    c-0.5,0.1-1,0.3-1.5,0.4c-0.1,0-0.2,0-0.3,0c-0.1,0-0.2,0-0.4,0c-0.1,0.1-0.3,0.1-0.4,0.1c-0.2,0-0.3,0-0.4,0.1    c-0.2,0.1-0.3,0.1-0.5,0.1c-0.1,0-0.2,0-0.3,0.1c0,0-0.1,0.1-0.1,0.1c-0.2,0-0.4-0.1-0.5,0c-0.2,0.1-0.5,0.2-0.7,0.2    c-0.1,0-0.1,0-0.2,0.1c-0.1,0.1-0.2,0.1-0.4,0.1c-0.2,0-0.4,0-0.6,0.1c-0.1,0-0.2,0-0.2,0.1c-0.1,0-0.3,0-0.4,0    c-0.5,0.1-1,0.3-1.5,0.4c-0.1,0-0.3,0-0.4,0c-0.5,0.1-0.9,0.3-1.3,0.5c-0.1,0-0.2,0.1-0.2,0.1c-0.2,0.3-0.6,0.4-0.9,0.5    C2.3,56,2.1,56,1.9,56.2c-0.1,0.1-0.3,0.1-0.4,0.2c0,0-0.1,0.1-0.1,0.2c-0.1,0.1-0.2,0.1-0.2,0.2C1.1,56.8,1,57,1,57.1    c0,0.1,0.1,0.2,0.2,0.2c0,0,0.1,0.1,0.1,0.2c0.3,0,0.3,0,0.6-0.1c0.1,0,0.2-0.1,0.3-0.1c0.1,0,0.2,0,0.2-0.1    c0.2-0.1,0.3-0.3,0.5-0.4c0.4-0.2,0.8-0.5,1.3-0.6c0,0,0,0,0,0C4.7,56.1,5,56,5.2,55.8c0.3-0.2,0.6-0.4,1-0.5    c0.2-0.1,0.4-0.2,0.6-0.2C7,55.1,7.1,55,7.1,55c0.1,0,0.2-0.1,0.3-0.1c0.3-0.1,0.6-0.2,1-0.2c0,0,0.1,0,0.1,0    c0.2-0.2,0.4-0.1,0.6-0.2c0.3-0.1,0.6-0.2,0.9-0.3c0.1,0,0.2-0.1,0.3-0.1c0.1,0,0.3,0,0.5-0.1c0.1-0.1,0.3-0.1,0.4-0.1    c0.1,0,0.3,0,0.4,0c0.3-0.2,0.7-0.1,1.1-0.3c0.6-0.1,1.2-0.2,1.8-0.4c0.1,0,0.2,0,0.3,0c0.1,0,0.2,0,0.4,0c0.2,0,0.3-0.1,0.5-0.1    c0.1,0,0.3,0,0.4-0.1c0.1-0.1,0.2-0.1,0.3-0.1c0.2,0,0.4,0,0.5-0.1c0.1-0.1,0.2-0.1,0.3-0.1c0.4,0.1,0.8-0.1,1.2-0.2    c0.2-0.1,0.4-0.1,0.6-0.1c0.1,0,0.3,0,0.4-0.1c0.4-0.3,0.9-0.3,1.4-0.3c0.4,0,0.7-0.1,1.1-0.1c0,0,0.1,0,0.1,0    c0.2-0.1,0.4-0.1,0.6-0.2c0.4-0.1,0.8-0.1,1.1-0.2c0.2-0.1,0.5-0.1,0.7-0.1c0.1,0,0.2,0,0.3,0c0.3-0.1,0.5-0.1,0.8-0.1    c0.1,0,0.2,0,0.3,0c0.5,0,0.9,0.1,1.4,0.2c0.3,0.1,0.5,0.1,0.8,0.2c0.2,0,0.4,0,0.5,0.1c0.5,0.2,1,0.4,1.4,0.6    c0.5,0.2,1,0.5,1.5,0.8c0,0,0.1,0,0.1,0l0.4-1.8l0-1l0-0.4c0-0.3,0-0.5,0.1-0.6l0-0.3l0.3-0.6c0.1-0.3,0.1-0.3,0.2-0.5    c0.1-0.2,0.1-0.3,0.2-0.4c0,0,0-0.1,0.1-0.1l0.2-0.4c0.4-0.4,0.9-0.8,0.8-1.4C33.9,44.6,33.2,44.6,33.2,44.6z M32.4,46.3    c-0.2,0.4-0.2,0.6-0.5,1c-0.1,0.1-0.1,0.3-0.2,0.5c-0.2,0.4-0.4,0.8-0.5,1.2c-0.1,0.3-0.3,0.6-0.4,0.9c-0.1,0.3-0.2,0.6-0.2,0.7    c-0.1,0.7,0.1,0.3-0.9,0.2c-0.4,0-1-0.4-1.4-0.5C28,50.2,27.7,50,27.3,50c-0.3,0-0.6-0.2-0.9-0.3c-0.3-0.1-0.6-0.3-0.8-0.4    c-0.3-0.1-0.5-0.2-0.8-0.3c-0.5-0.3-0.9-0.5-1.4-0.7c-0.2-0.1-0.3-0.1-0.4-0.2c0.1,0,0.6-0.1,0.7-0.2c0.3-0.2,0.7,0,1-0.2    c0.2-0.1,1.1-0.2,1.4-0.3c0.4-0.1,2-1,2-1s2-0.9,2.5-1c0.4-0.1,1.5-0.2,1.9-0.2c0,0.1,0,0.3,0,0.4C32.6,45.9,32.5,46.1,32.4,46.3z    "/>
	</g>
</g>
<g>
	<path d="M87.9,61.9v-1.3c0-0.4,0.2-0.7,0.5-0.7c0.2,0,0.3,0,0.7,0.3c1.6,1,3.9,1.8,5.9,1.8c3.4,0,5.6-1.9,5.6-4.9   c0-2.3-0.6-3.1-3.7-5.3l-5-3.6c-2.5-1.8-3.6-3.7-3.6-6c0-1.9,0.6-3.5,2-4.7c1.5-1.4,3.1-2,6-2c3.4,0,6,0.8,6,1.9v1.1   c0,0.4-0.2,0.6-0.5,0.6c-0.1,0-0.2,0-0.5-0.2c-1.4-0.8-3.5-1.5-5.1-1.5c-3.2,0-5.4,1.8-5.4,4.3c0,1.6,0.8,2.9,2.7,4.2l5.3,3.8   c2,1.4,2.3,1.7,3,2.7c0.9,1.2,1.3,2.6,1.3,4.2c0,4.4-3.4,7.4-8.6,7.4c-2,0-4.2-0.5-6-1.3C88,62.6,87.9,62.4,87.9,61.9z"/>
	<path d="M121.6,52.8h-10.3l-3.7,10.6c-0.1,0.3-0.2,0.4-0.5,0.4h-1c-0.5,0-0.8-0.2-0.8-0.5c0-0.1,0-0.3,0.1-0.5l8.9-25.6l0.3-0.8   c0.2-0.7,0.6-0.9,1.5-0.9h0.9c0.8,0,0.9,0,1.1,0.2c0.2,0.2,0.3,0.4,0.4,0.6c0.1,0.2,0.2,0.5,0.3,0.8l9,25.7c0,0.1,0.1,0.3,0.1,0.4   c0,0.4-0.3,0.5-0.8,0.5h-1.3c-0.3,0-0.4-0.1-0.5-0.4L121.6,52.8z M120.8,50.7l-4.5-13l-4.3,13H120.8z"/>
	<path d="M133.8,48.2h14V36.4c0-0.3,0.3-0.6,0.5-0.6h1.4c0.3,0,0.5,0.3,0.5,0.6v26.9c0,0.3-0.2,0.5-0.5,0.5h-1.4   c-0.3,0-0.5-0.3-0.5-0.5V50.3h-14v12.9c0,0.3-0.3,0.5-0.6,0.5h-1.4c-0.3,0-0.5-0.3-0.5-0.5V36.4c0-0.3,0.3-0.6,0.5-0.6h1.4   c0.3,0,0.6,0.3,0.6,0.6V48.2z"/>
	<path d="M158.3,39.4v23.9c0,0.3-0.3,0.5-0.5,0.5h-1c-0.3,0-0.5-0.3-0.5-0.5V36.4c0-0.3,0.3-0.6,0.5-0.6h1.9c0.7,0,1,0.2,1.3,1   l9,24.7l8.7-24.7c0.3-0.8,0.5-1,1.2-1h1.9c0.3,0,0.5,0.3,0.5,0.6v26.9c0,0.3-0.3,0.5-0.5,0.5h-1.4c-0.3,0-0.5-0.3-0.5-0.5V39.7   l-8.3,23.4c-0.2,0.5-0.5,0.7-1.3,0.7h-1c-0.6,0-0.9-0.2-1-0.7L158.3,39.4z"/>
	<path d="M194.1,50.3l10.3,12.3c0.1,0.2,0.2,0.3,0.2,0.3c0.1,0.1,0.1,0.2,0.1,0.3c0,0.4-0.3,0.5-0.9,0.5h-1.6   c-0.2,0-0.3-0.1-0.4-0.2l-11.1-13.3c-0.1-0.1-0.2-0.2-0.2-0.3c-0.1,0-0.2-0.1-0.3-0.1h-0.3v13.3c0,0.3-0.3,0.5-0.6,0.5h-1.4   c-0.3,0-0.5-0.3-0.5-0.5V36.4c0-0.3,0.3-0.6,0.5-0.6h6.3c3.1,0,4.9,0.6,6.4,2c1.4,1.3,2.1,3.2,2.1,5.2c0,4.5-3.2,7.3-8.3,7.3H194.1   z M189.8,48.2h4.2c3.7,0,6-1.9,6-5.2c0-3.2-2.2-5.1-6-5.1h-4.2V48.2z"/>
	<path d="M208.1,63.3V36.4c0-0.3,0.3-0.6,0.5-0.6h1.4c0.3,0,0.6,0.3,0.6,0.6v26.9c0,0.3-0.3,0.5-0.6,0.5h-1.4   C208.3,63.8,208.1,63.5,208.1,63.3z"/>
</g>
</svg>